<?xml version="1.0" encoding="UTF-8" standalone="no"?>
<!DOCTYPE svg PUBLIC "-//W3C//DTD SVG 1.1//EN" "http://www.w3.org/Graphics/SVG/1.1/DTD/svg11.dtd">
<svg width="100%" height="100%" viewBox="0 0 760 365" version="1.1" xmlns="http://www.w3.org/2000/svg" xmlns:xlink="http://www.w3.org/1999/xlink" xml:space="preserve" xmlns:serif="http://www.serif.com/" style="fill-rule:evenodd;clip-rule:evenodd;stroke-linejoin:round;stroke-miterlimit:2;">
    <g transform="matrix(0.0999737,1.14134e-20,-1.14134e-20,-0.0998805,-8.99763,396.226)">
        <path d="M7145,3963C7134,3960 7119,3953 7112,3948C7105,3942 7071,3930 7036,3920C6984,3906 6943,3904 6828,3907C6724,3911 6658,3907 6585,3895C6530,3886 6429,3873 6360,3865C6291,3858 6197,3847 6150,3841C6104,3835 5808,3785 5769,3776C5731,3766 5678,3750 5652,3740C5626,3731 5551,3705 5485,3685C5337,3638 5245,3584 5203,3565C5161,3546 5122,3530 5115,3530C5108,3530 5096,3523 5089,3513C5072,3493 4943,3430 4918,3430C4908,3430 4866,3419 4824,3405C4725,3373 4535,3327 4390,3301C4135,3254 4053,3237 4000,3220C3938,3200 3715,3130 3540,3076C3477,3057 3407,3036 3385,3031C3339,3020 3230,2981 3215,2970C3210,2966 3160,2953 3105,2942C2872,2895 2859,2893 2754,2898C2716,2899 2694,2907 2667,2928C2619,2964 2130,3285 2122,3285C2118,3285 2099,3297 2080,3312C2037,3344 1729,3493 1600,3543C1441,3606 1379,3614 1075,3614C889,3615 780,3611 750,3603C725,3597 685,3586 660,3580C636,3574 613,3566 610,3562C607,3558 578,3542 545,3525C512,3509 458,3480 425,3462C392,3443 322,3406 270,3380C165,3326 90,3268 90,3241C90,3185 174,3174 248,3220C274,3236 322,3261 353,3275C384,3290 412,3306 416,3311C423,3323 515,3370 532,3370C539,3370 563,3379 585,3390C662,3427 832,3472 920,3477C1085,3486 1273,3453 1450,3382C1669,3295 1842,3202 1993,3088C2152,2968 2190,2938 2235,2898L2285,2852L2288,2751C2293,2626 2288,2617 2183,2560C2073,2501 1959,2389 1914,2293C1895,2253 1880,2218 1880,2214C1880,2210 1874,2199 1866,2191C1859,2182 1831,2135 1805,2085C1778,2036 1734,1955 1707,1905C1679,1856 1650,1802 1642,1786C1634,1771 1589,1719 1541,1671C1466,1594 1442,1577 1347,1531C1237,1477 1210,1453 1170,1374C1160,1354 1096,1162 1091,1152C1086,1143 1074,1118 1066,1098C1057,1078 1045,1058 1038,1054C1020,1043 970,923 970,890C970,853 882,754 840,745C812,739 812,738 805,637C801,581 800,517 802,495C805,458 808,454 875,419C933,388 946,377 948,353C953,312 961,308 1020,316C1063,322 1082,331 1115,361C1151,394 1157,407 1167,464C1177,525 1195,570 1273,730C1324,834 1572,1079 1698,1150C1713,1159 1777,1200 1840,1241C1941,1307 2126,1417 2208,1459C2234,1473 2480,1619 2668,1734C2719,1765 2764,1790 2769,1790C2773,1790 2804,1803 2837,1820C2978,1888 3070,1915 3345,1971C3386,1979 3576,1985 3953,1987C4265,1990 4498,1995 4495,2000C4492,2005 4511,2009 4537,2008C4563,2008 4637,2020 4700,2035C4763,2049 4833,2064 4855,2067C4877,2070 4899,2076 4905,2081C4910,2086 4922,2090 4932,2090C4942,2090 4958,2094 4968,2099C4983,2107 5133,2168 5230,2205C5336,2246 5398,2269 5420,2275C5434,2279 5505,2311 5578,2346C5766,2437 5754,2440 5915,2279L6047,2149L6316,2159C6464,2165 6667,2178 6767,2187C6969,2206 7010,2202 7131,2155C7231,2115 7258,2098 7374,2000C7433,1949 7454,1940 7507,1940C7551,1940 7557,1943 7623,2009L7692,2078L7684,2137C7681,2169 7673,2206 7668,2219C7663,2232 7593,2310 7512,2392L7365,2541L7245,2566C7145,2586 7096,2590 6952,2590C6793,2590 6717,2630 6703,2630C6632,2630 6550,2704 6550,2769C6550,2790 6557,2823 6565,2843C6573,2862 6584,2918 6590,2966C6603,3081 6610,3089 6696,3078C6783,3068 6833,3038 6917,2944C6988,2866 7023,2840 7062,2840C7090,2840 7170,2869 7191,2887C7199,2894 7212,2900 7219,2900C7238,2900 7333,2950 7360,2975C7374,2987 7398,3004 7415,3011C7431,3019 7451,3037 7459,3052C7474,3077 7473,3083 7443,3142C7417,3192 7409,3225 7401,3300C7396,3352 7387,3408 7381,3423C7375,3439 7370,3466 7370,3483C7370,3515 7316,3619 7264,3687C7235,3726 7234,3741 7260,3765C7278,3782 7280,3794 7278,3874L7275,3965L7220,3967C7190,3967 7156,3966 7145,3963Z" style="fill-rule:nonzero;"/>
    </g>
</svg>
